<?xml version="1.0" standalone="no"?><!DOCTYPE svg PUBLIC "-//W3C//DTD SVG 1.1//EN" "http://www.w3.org/Graphics/SVG/1.1/DTD/svg11.dtd"><svg class="icon" height="512" viewBox="0 0 1024 1024" version="1.1" xmlns="http://www.w3.org/2000/svg"><path d="M480 704c88.368 0 160-71.632 160-160l0-384c0-88.368-71.632-160-160-160s-160 71.632-160 160l0 384c0 88.368 71.632 160 160 160zM704 448l0 96c0 123.712-100.288 224-224 224s-224-100.288-224-224l0-96-64 0 0 96c0 148.24 112 270.304 256 286.224l0 129.776-128 0 0 64 320 0 0-64-128 0 0-129.776c144-15.92 256-137.984 256-286.224l0-96-64 0z" /></svg>